# xmcd
#
# Track frame offsets:
#	187
#	23515
#	43480
#	59335
#	74417
#	90502
#	102437
#	114540
#	128650
#	141112
#	154802
#
# Disc length: 2368 seconds
#
# Revision: 1
# Processed by: cddbd v1.5.2PL0 Copyright (c) Steve Scherf et al.
# Submitted via: audiograbber 1.83.01
#
DISCID=96093e0b
DTITLE=Johnny Adams - A Christmas With Johnny Adams
DYEAR=1900
DGENRE=Gospel
TTITLE0=Silent Night
TTITLE1=O Little Town of Bethlehem
TTITLE2=The Lord's Prayer
TTITLE3=Silver Bells
TTITLE4=The Christmas Song
TTITLE5=The Little Boy That Santa Forgot
TTITLE6=This Christmas
TTITLE7=Lonesome Christmas
TTITLE8=The Bells of St Mary's
TTITLE9=White Christmas
TTITLE10=Please Come Home For Christmas
EXTD=Hep' Me Records
EXTT0=
EXTT1=
EXTT2=
EXTT3=
EXTT4=
EXTT5=
EXTT6=
EXTT7=
EXTT8=
EXTT9=
EXTT10=
PLAYORDER=
